<svg width="288" height="43" viewBox="0 0 288 43" fill="none" xmlns="http://www.w3.org/2000/svg">
<rect width="288" height="43" fill="white"/>
<path d="M14.33 16.3941C13.48 14.3941 12.17 13.3941 10.33 13.3941C8.14 13.3941 6.75 14.5041 6.75 16.4641C6.75 18.5841 8.75 19.1541 11.35 19.8341C14.35 20.6341 17 21.5441 17 25.0041C17 29.3441 14.27 31.3341 10.41 31.3341C6.55 31.3341 3.77 29.3341 3 25.4341L5.33 24.5241C6.04 27.1941 7.57 28.9541 10.41 28.9541C12.82 28.9541 14.5 27.7541 14.5 25.3441C14.5 23.2741 12.97 22.8441 9.99 22.1141C7.17 21.4041 4.25 20.5241 4.25 16.5441C4.25 13.3941 6.44 11.0041 10.33 11.0041C11.6848 10.9555 13.0195 11.3432 14.1374 12.1101C15.2553 12.877 16.0975 13.9826 16.54 15.2641L14.33 16.3941Z" fill="#FFE542"/>
<path d="M22.36 11.2141H24.86V24.4041C24.8312 25.0188 24.9273 25.6331 25.1427 26.2096C25.3581 26.7862 25.6882 27.3131 26.1131 27.7583C26.538 28.2036 27.0488 28.5581 27.6146 28.8003C28.1805 29.0424 28.7895 29.1673 29.405 29.1673C30.0205 29.1673 30.6295 29.0424 31.1954 28.8003C31.7612 28.5581 32.272 28.2036 32.6969 27.7583C33.1218 27.3131 33.4519 26.7862 33.6673 26.2096C33.8827 25.6331 33.9788 25.0188 33.95 24.4041V11.2141H36.45V24.2141C36.45 26.0825 35.7078 27.8744 34.3866 29.1956C33.0654 30.5168 31.2734 31.259 29.405 31.259C27.5365 31.259 25.7446 30.5168 24.4234 29.1956C23.1022 27.8744 22.36 26.0825 22.36 24.2141V11.2141Z" fill="#FFE542"/>
<path d="M55.47 11.2141V31.1241H52.74L44.43 15.7941V31.1241H41.93V11.2141H44.65L52.97 26.5441V11.2141H55.47Z" fill="#FFE542"/>
<path d="M66.46 11.2141C71.63 11.2141 75.29 14.4241 75.29 21.1541C75.29 27.8841 71.63 31.0841 66.46 31.0841H61.46V11.2141H66.46ZM63.93 13.604V28.704H66.2C70.2 28.704 72.62 26.7041 72.62 21.1541C72.62 15.6041 70.15 13.604 66.2 13.604H63.93Z" fill="#FFE542"/>
<path d="M88.57 11.2141L95.57 31.1241H92.99L91.2 25.8241H83.42L81.63 31.1241H79.07L86.14 11.2141H88.57ZM84.31 23.3941H90.44L87.38 14.454L84.31 23.3941Z" fill="#FFE542"/>
<path d="M99 11.2141H101.75L106.64 20.7541L111.57 11.2141H114.32L107.94 23.2141V31.0441H105.44V23.2941L99 11.2141Z" fill="#FFE542"/>
<path d="M137.68 11.23L141.91 22.23L146.14 11.23H148.81V31.1H146.31V16.54L142.85 25.39H140.96L137.5 16.54V31.1H135V11.23H137.68Z" fill="#FFE542"/>
<path d="M199.11 21.73H195.79V31.1H193.29V11.23H200.29C203.81 11.23 206.14 12.96 206.14 16.48C206.237 17.6985 205.859 18.9072 205.086 19.8538C204.312 20.8004 203.203 21.4117 201.99 21.56L207.93 31.1H204.93L199.11 21.73ZM195.79 13.65V19.35H200.31C202.38 19.35 203.51 18.47 203.51 16.48C203.51 14.49 202.38 13.65 200.31 13.65H195.79Z" fill="#FFE542"/>
<path d="M225.89 11.23V31.1H223.16L214.84 15.77V31.1H212.35V11.23H215.07L223.39 26.56V11.23H225.89Z" fill="#FFE542"/>
<path d="M232.39 31.1V28.94H237.19V13.38H232.39V11.23H244.49V13.38H239.68V28.94H244.48V31.1H232.39Z" fill="#FFE542"/>
<path d="M264.5 11.23V31.1H261.78L253.46 15.77V31.1H250.96V11.23H253.68L262 26.56V11.23H264.5Z" fill="#FFE542"/>
<path d="M282.53 28.43C282.076 29.353 281.359 30.1209 280.469 30.637C279.579 31.153 278.557 31.3942 277.53 31.33C273.21 31.33 269.53 28.03 269.53 21.16C269.53 14.29 273.25 11 277.74 11C281.66 11 283.98 13.53 284.86 17.05L282.51 17.76C281.63 14.86 280.24 13.38 277.74 13.38C274.36 13.38 272.12 15.74 272.12 21.16C272.12 26.58 274.36 28.94 277.74 28.94C280.46 28.94 281.94 26.94 282.2 23.46H277.68V21.08H284.68V31.08H282.68L282.53 28.43Z" fill="#FFE542"/>
<path d="M187.53 30.98H185.07C185.12 29.0935 184.792 27.216 184.105 25.4584C183.417 23.7008 182.385 22.0986 181.068 20.7465C179.752 19.3944 178.178 18.3198 176.439 17.586C174.7 16.8522 172.832 16.4742 170.945 16.4742C169.058 16.4742 167.19 16.8522 165.451 17.586C163.712 18.3198 162.138 19.3944 160.822 20.7465C159.505 22.0986 158.473 23.7008 157.785 25.4584C157.098 27.216 156.77 29.0935 156.82 30.98H154.37C154.37 26.5827 156.117 22.3655 159.226 19.2562C162.336 16.1468 166.553 14.4 170.95 14.4C175.347 14.4 179.564 16.1468 182.674 19.2562C185.783 22.3655 187.53 26.5827 187.53 30.98Z" fill="#FFE542"/>
</svg>
