<svg width="332" height="40" viewBox="0 0 332 40" fill="none" xmlns="http://www.w3.org/2000/svg">
<path d="M30.33 15.3941C29.48 13.3941 28.17 12.3941 26.33 12.3941C24.14 12.3941 22.75 13.5041 22.75 15.4641C22.75 17.5841 24.75 18.1541 27.35 18.8341C30.35 19.6341 33 20.5441 33 24.0041C33 28.3441 30.27 30.3341 26.41 30.3341C22.55 30.3341 19.77 28.3341 19 24.4341L21.33 23.5241C22.04 26.1941 23.57 27.9541 26.41 27.9541C28.82 27.9541 30.5 26.7541 30.5 24.3441C30.5 22.2741 28.97 21.8441 25.99 21.1141C23.17 20.4041 20.25 19.5241 20.25 15.5441C20.25 12.3941 22.44 10.0041 26.33 10.0041C27.6848 9.95552 29.0195 10.3432 30.1374 11.1101C31.2553 11.877 32.0975 12.9826 32.54 14.2641L30.33 15.3941Z" fill="#26231E"/>
<path d="M38.36 10.2141H40.86V23.4041C40.8312 24.0188 40.9273 24.6331 41.1427 25.2096C41.3581 25.7862 41.6882 26.3131 42.1131 26.7583C42.538 27.2036 43.0488 27.5581 43.6146 27.8003C44.1805 28.0424 44.7895 28.1673 45.405 28.1673C46.0205 28.1673 46.6295 28.0424 47.1954 27.8003C47.7612 27.5581 48.272 27.2036 48.6969 26.7583C49.1218 26.3131 49.4519 25.7862 49.6673 25.2096C49.8827 24.6331 49.9788 24.0188 49.95 23.4041V10.2141H52.45V23.2141C52.45 25.0825 51.7078 26.8744 50.3866 28.1956C49.0654 29.5168 47.2734 30.259 45.405 30.259C43.5365 30.259 41.7446 29.5168 40.4234 28.1956C39.1022 26.8744 38.36 25.0825 38.36 23.2141V10.2141Z" fill="#26231E"/>
<path d="M71.47 10.2141V30.1241H68.74L60.43 14.7941V30.1241H57.93V10.2141H60.65L68.97 25.5441V10.2141H71.47Z" fill="#26231E"/>
<path d="M82.46 10.2141C87.63 10.2141 91.29 13.4241 91.29 20.1541C91.29 26.8841 87.63 30.0841 82.46 30.0841H77.46V10.2141H82.46ZM79.93 12.604V27.704H82.2C86.2 27.704 88.62 25.7041 88.62 20.1541C88.62 14.6041 86.15 12.604 82.2 12.604H79.93Z" fill="#26231E"/>
<path d="M104.57 10.2141L111.57 30.1241H108.99L107.2 24.8241H99.42L97.63 30.1241H95.07L102.14 10.2141H104.57ZM100.31 22.3941H106.44L103.38 13.454L100.31 22.3941Z" fill="#26231E"/>
<path d="M115 10.2141H117.75L122.64 19.7541L127.57 10.2141H130.32L123.94 22.2141V30.0441H121.44V22.2941L115 10.2141Z" fill="#26231E"/>
<path d="M153.68 10.23L157.91 21.23L162.14 10.23H164.81V30.1H162.31V15.54L158.85 24.39H156.96L153.5 15.54V30.1H151V10.23H153.68Z" fill="#26231E"/>
<path d="M215.11 20.73H211.79V30.1H209.29V10.23H216.29C219.81 10.23 222.14 11.96 222.14 15.48C222.237 16.6985 221.859 17.9072 221.086 18.8538C220.312 19.8004 219.203 20.4117 217.99 20.56L223.93 30.1H220.93L215.11 20.73ZM211.79 12.65V18.35H216.31C218.38 18.35 219.51 17.47 219.51 15.48C219.51 13.49 218.38 12.65 216.31 12.65H211.79Z" fill="#26231E"/>
<path d="M241.89 10.23V30.1H239.16L230.84 14.77V30.1H228.35V10.23H231.07L239.39 25.56V10.23H241.89Z" fill="#26231E"/>
<path d="M248.39 30.1V27.94H253.19V12.38H248.39V10.23H260.49V12.38H255.68V27.94H260.48V30.1H248.39Z" fill="#26231E"/>
<path d="M280.5 10.23V30.1H277.78L269.46 14.77V30.1H266.96V10.23H269.68L278 25.56V10.23H280.5Z" fill="#26231E"/>
<path d="M298.53 27.43C298.076 28.353 297.359 29.1209 296.469 29.637C295.579 30.153 294.557 30.3942 293.53 30.33C289.21 30.33 285.53 27.03 285.53 20.16C285.53 13.29 289.25 10 293.74 10C297.66 10 299.98 12.53 300.86 16.05L298.51 16.76C297.63 13.86 296.24 12.38 293.74 12.38C290.36 12.38 288.12 14.74 288.12 20.16C288.12 25.58 290.36 27.94 293.74 27.94C296.46 27.94 297.94 25.94 298.2 22.46H293.68V20.08H300.68V30.08H298.68L298.53 27.43Z" fill="#26231E"/>
<path d="M203.53 29.98H201.07C201.12 28.0935 200.792 26.216 200.105 24.4584C199.417 22.7008 198.385 21.0986 197.068 19.7465C195.752 18.3944 194.178 17.3198 192.439 16.586C190.7 15.8522 188.832 15.4742 186.945 15.4742C185.058 15.4742 183.19 15.8522 181.451 16.586C179.712 17.3198 178.138 18.3944 176.822 19.7465C175.505 21.0986 174.473 22.7008 173.785 24.4584C173.098 26.216 172.77 28.0935 172.82 29.98H170.37C170.37 25.5827 172.117 21.3655 175.226 18.2562C178.336 15.1468 182.553 13.4 186.95 13.4C191.347 13.4 195.564 15.1468 198.674 18.2562C201.783 21.3655 203.53 25.5827 203.53 29.98Z" fill="#26231E"/>
</svg>
